<svg width="100" height="35" viewBox="0 0 100 35" fill="none" xmlns="http://www.w3.org/2000/svg">
<path d="M12.7101 8.02802L7.47132 35H0L7.64921 0H17.7889L25.4114 35H17.9489L12.7101 8.02802Z" fill="#F6C31D"/>
<path d="M27.2168 0H38.0146C44.6084 0 47.9023 2.45603 47.8963 7.3681V17.2851C47.8963 20.3687 45.9484 22.3969 42.0527 23.3697L50.3868 35H42.2662L35.5776 24.2596L34.6347 24.3505V35H27.2168V0ZM34.6347 4.97665V19.6584H36.3425C37.0549 19.6838 37.7688 19.6348 38.4593 19.5131C39.1085 19.344 39.6578 19.0343 40.0227 18.6316C40.3876 18.229 40.5477 17.7558 40.4784 17.2851V7.3681C40.4784 5.7738 39.4051 4.97665 37.2586 4.97665H34.6347Z" fill="#F6C31D"/>
<path d="M65.3379 21.3899L75.1218 35H67.1968L59.3164 23.3333V35H51.8984V0H59.3164V19.4646L67.1968 0H74.8283L65.3379 21.3899Z" fill="#F6C31D"/>
<path d="M87.2629 8.02802L82.0241 35H74.5527L82.2108 0H92.3772L99.9997 35H92.5017L87.2629 8.02802Z" fill="#F6C31D"/>
</svg>
