<svg width="640" height="471" viewBox="0 0 640 471" fill="none" xmlns="http://www.w3.org/2000/svg">
<path d="M71.355 122.472H567.074" stroke="#D5CBC6" stroke-width="2.62376" stroke-miterlimit="10"/>
<path d="M560.6 396.683H77.8293C74.2536 396.683 71.355 393.785 71.355 390.21V96.4501C71.355 92.8754 74.2536 89.9768 77.8293 89.9768H560.6C564.175 89.9768 567.074 92.8754 567.074 96.4501V390.21C567.074 393.785 564.175 396.683 560.6 396.683Z" stroke="#D5CBC6" stroke-width="2.62376" stroke-miterlimit="10"/>
<path d="M104.025 106.556C104.025 109.06 101.994 111.09 99.4907 111.09C96.9861 111.09 94.9561 109.06 94.9561 106.556C94.9561 104.052 96.9861 102.022 99.4907 102.022C101.994 102.022 104.025 104.052 104.025 106.556Z" fill="#F79395"/>
<path d="M121.648 106.556C121.648 109.06 119.618 111.09 117.113 111.09C114.609 111.09 112.58 109.06 112.58 106.556C112.58 104.052 114.609 102.022 117.113 102.022C119.618 102.022 121.648 104.052 121.648 106.556Z" fill="#D5C23E"/>
<path d="M139.271 106.556C139.271 109.06 137.24 111.09 134.736 111.09C132.232 111.09 130.202 109.06 130.202 106.556C130.202 104.052 132.232 102.022 134.736 102.022C137.24 102.022 139.271 104.052 139.271 106.556Z" fill="url(#paint0_linear)"/>
<path d="M631.472 231.924H514.969C511.684 231.924 509.021 229.262 509.021 225.977V118.229C509.021 114.945 511.684 112.282 514.969 112.282H631.472C634.757 112.282 637.42 114.945 637.42 118.229V225.977C637.42 229.262 634.757 231.924 631.472 231.924Z" fill="#E7E5E4"/>
<path d="M631.472 231.924H514.969C511.684 231.924 509.021 229.262 509.021 225.977V118.229C509.021 114.945 511.684 112.282 514.969 112.282H631.472C634.757 112.282 637.42 114.945 637.42 118.229V225.977C637.42 229.262 634.757 231.924 631.472 231.924V231.924Z" stroke="#D5CBC6" stroke-width="2.62376" stroke-miterlimit="10"/>
<path d="M543.134 200.802H603.686C606.988 200.802 609.665 198.125 609.665 194.824V145.198C609.665 141.897 606.988 139.221 603.686 139.221H543.134C539.834 139.221 537.157 141.897 537.157 145.198V194.824C537.157 198.125 539.834 200.802 543.134 200.802Z" fill="url(#paint1_radial)"/>
<path d="M589.95 180.249H556.49V157.809H589.95V163.419V180.249Z" stroke="white" stroke-width="2.19547" stroke-miterlimit="10" stroke-linecap="round" stroke-linejoin="round"/>
<path d="M556.49 157.81L573.221 170.995L589.95 157.81" stroke="white" stroke-width="2.19547" stroke-miterlimit="10" stroke-linecap="round" stroke-linejoin="round"/>
<path d="M118.779 322.148H7.67114C4.53871 322.148 2 319.609 2 316.476V219.606C2 216.474 4.53871 213.934 7.67114 213.934H118.779C121.911 213.934 124.451 216.474 124.451 219.606V316.476C124.451 319.609 121.911 322.148 118.779 322.148Z" fill="#E7E5E4"/>
<path d="M118.779 322.148H7.67114C4.53871 322.148 2 319.609 2 316.476V219.606C2 216.474 4.53871 213.934 7.67114 213.934H118.779C121.911 213.934 124.451 216.474 124.451 219.606V316.476C124.451 319.609 121.911 322.148 118.779 322.148V322.148Z" stroke="#D5CBC6" stroke-width="2.62376" stroke-miterlimit="10"/>
<path d="M91.7491 301.3H34.1246C30.4846 301.3 27.5337 298.35 27.5337 294.71V239.059C27.5337 235.418 30.4846 232.468 34.1246 232.468H91.7491C95.3893 232.468 98.3406 235.418 98.3406 239.059V294.71C98.3406 298.35 95.3893 301.3 91.7491 301.3Z" fill="url(#paint2_radial)"/>
<path d="M81.3914 266.356H72.7857C72.7391 263.769 72.4026 261.181 71.7623 258.595H79.0695C80.3888 260.91 81.2107 263.546 81.3914 266.356ZM79.0695 276.459H71.531C72.212 273.871 72.6239 271.285 72.75 268.697H81.3914C81.2107 271.508 80.3897 274.144 79.0695 276.459ZM68.3722 284.885C69.354 282.857 70.1789 280.829 70.8401 278.8H77.4792C75.1751 281.679 72.0095 283.837 68.3722 284.885ZM63.3691 285.588C62.567 285.588 61.7768 285.535 61.0035 285.434C59.8996 283.222 58.9595 281.011 58.2031 278.8H68.534C67.7776 281.011 66.8375 283.222 65.7356 285.434C64.9604 285.535 64.1712 285.588 63.3691 285.588ZM49.259 278.8H55.8981C56.5592 280.828 57.3841 282.857 58.3649 284.885C54.7287 283.837 51.562 281.679 49.259 278.8ZM47.6687 276.459C46.3484 274.144 45.5266 271.508 45.3466 268.697H53.9881C54.1142 271.284 54.5252 273.871 55.2072 276.459H47.6687ZM47.6687 258.595H54.9759C54.3356 261.181 53.9991 263.769 53.9524 266.356H45.3466C45.5266 263.546 46.3484 260.91 47.6687 258.595ZM58.1197 250.242C57.1032 252.245 56.2793 254.25 55.639 256.254H49.259C51.5104 253.439 54.5857 251.314 58.1197 250.242ZM63.3691 249.466C64.332 249.466 65.276 249.542 66.1972 249.686C67.4242 251.876 68.3851 254.065 69.0999 256.254H57.6383C58.353 254.065 59.3139 251.876 60.5409 249.686C61.4621 249.542 62.4072 249.466 63.3691 249.466ZM70.6415 268.697C70.4648 271.284 69.9963 273.871 69.2657 276.459H57.4715C56.7419 273.872 56.2733 271.285 56.0966 268.697H70.6415ZM56.0182 266.356C56.0212 263.769 56.3259 261.181 56.9662 258.595H69.7719C70.4122 261.181 70.717 263.769 70.7199 266.356H56.0182ZM77.4792 256.254H71.0992C70.4589 254.25 69.6349 252.245 68.6184 250.242C72.1524 251.314 75.2278 253.439 77.4792 256.254ZM49.2133 253.371C41.4387 261.146 41.4387 273.908 49.2133 281.683C56.9881 289.458 69.7501 289.458 77.5248 281.683C85.2996 273.908 85.2996 261.146 77.5248 253.371C69.7501 245.596 56.9881 245.596 49.2133 253.371Z" fill="white"/>
<path d="M112.157 61.6738H11.4996C9.42036 61.6738 7.73438 59.9882 7.73438 57.9085C7.73438 55.8298 9.42036 54.1433 11.4996 54.1433H112.157C114.236 54.1433 115.922 55.8298 115.922 57.9085C115.922 59.9882 114.236 61.6738 112.157 61.6738Z" fill="url(#paint3_radial)"/>
<path d="M635.574 307.548H586.718C584.64 307.548 582.953 305.862 582.953 303.782C582.953 301.704 584.64 300.017 586.718 300.017H635.574C637.653 300.017 639.339 301.704 639.339 303.782C639.339 305.862 637.653 307.548 635.574 307.548Z" fill="url(#paint4_linear)"/>
<path d="M601.357 351.103H595.387C593.819 351.103 592.546 349.832 592.546 348.263V342.658C592.546 341.09 593.819 339.819 595.387 339.819H601.357C602.926 339.819 604.198 341.09 604.198 342.658V348.263C604.198 349.832 602.926 351.103 601.357 351.103Z" fill="url(#paint5_radial)"/>
<path d="M35.4766 377.19H29.5066C27.938 377.19 26.6665 375.918 26.6665 374.35V368.745C26.6665 367.177 27.938 365.905 29.5066 365.905H35.4766C37.0452 365.905 38.3171 367.177 38.3171 368.745V374.35C38.3171 375.918 37.0452 377.19 35.4766 377.19Z" fill="url(#paint6_radial)"/>
<path d="M492.387 57.7838H393.035C391.384 57.7838 390.044 56.4457 390.044 54.7938V30.5365C390.044 28.8856 391.384 27.5475 393.035 27.5475H492.387C494.039 27.5475 495.377 28.8856 495.377 30.5365V54.7938C495.377 56.4457 494.039 57.7838 492.387 57.7838Z" fill="url(#paint7_radial)"/>
<path d="M404.392 38.3218H475.049" stroke="white" stroke-width="1.57375" stroke-miterlimit="10"/>
<path d="M404.392 45.5732H433.173" stroke="white" stroke-width="1.57375" stroke-miterlimit="10"/>
<path d="M401.518 54.3634V66.1476L416.339 54.3634H401.518Z" fill="url(#paint8_radial)"/>
<path d="M248.291 59.5833H200.197C195.526 59.5833 191.74 55.7961 191.74 51.1255V6.41278C191.74 2.87086 194.611 -3.8147e-06 198.152 -3.8147e-06H248.291C251.832 -3.8147e-06 254.703 2.87086 254.703 6.41278V53.1705C254.703 56.7124 251.832 59.5833 248.291 59.5833Z" fill="url(#paint9_linear)"/>
<path d="M236.443 37.5265C236.186 37.7826 235.93 38.0387 235.674 38.2948C235.225 38.679 234.842 39.1277 234.394 39.5754C233.753 40.2157 233.048 40.5363 232.089 40.5363C231.961 40.5363 231.897 40.5363 231.769 40.5363C229.848 40.4083 228.055 39.6399 226.775 38.9996C223.126 37.2068 219.924 34.7102 217.236 31.5088C215.059 28.8831 213.587 26.3865 212.561 23.7618C211.922 22.2252 211.665 21.0091 211.794 19.7921C211.858 19.0882 212.114 18.448 212.69 17.9357L214.867 15.7588C215.059 15.5672 215.379 15.311 215.763 15.311C216.147 15.311 216.403 15.5026 216.659 15.7588C217.043 16.1429 217.428 16.5271 217.812 16.9113C218.004 17.1038 218.196 17.359 218.452 17.5516L220.245 19.3444C220.436 19.536 220.692 19.9201 220.692 20.2407C220.692 20.6249 220.436 20.9446 220.245 21.1362C220.052 21.3287 219.861 21.5213 219.668 21.7129C219.092 22.2897 218.58 22.8009 218.068 23.3131C218.068 23.3131 218.068 23.3131 218.004 23.3777C217.364 24.0179 217.492 24.5947 217.62 24.9779V25.0424C218.068 26.1949 218.773 27.2184 219.733 28.5C221.525 30.7405 223.446 32.4687 225.559 33.8138C225.815 34.0054 226.134 34.1335 226.391 34.2615C226.647 34.3896 226.839 34.4541 227.031 34.5822L227.095 34.6457C227.735 34.9653 228.375 34.8373 228.888 34.326L231.129 32.0845C231.32 31.893 231.641 31.6369 232.025 31.6369C232.346 31.6369 232.665 31.893 232.857 32.0845L236.443 35.6702C237.019 36.2459 237.019 36.8862 236.443 37.5265ZM237.915 34.198L234.33 30.6124C233.69 29.9076 232.857 29.5234 232.025 29.5234C231.192 29.5234 230.36 29.9076 229.72 30.5488L227.671 32.5968C227.543 32.5333 227.415 32.4687 227.287 32.4052C227.031 32.2771 226.839 32.2126 226.647 32.0845C224.726 30.8685 222.997 29.2673 221.333 27.2184C220.564 26.2584 219.989 25.363 219.668 24.5947C220.181 24.146 220.629 23.6338 221.077 23.1861C221.269 22.9935 221.461 22.8009 221.653 22.6093C222.357 21.9055 222.741 21.0726 222.741 20.2407C222.741 19.4079 222.357 18.576 221.653 17.8712L219.861 16.0794C219.668 15.8868 219.476 15.6952 219.284 15.4391C218.901 15.0549 218.452 14.6072 218.068 14.2221C217.428 13.5818 216.596 13.1986 215.763 13.1986C214.931 13.1986 214.163 13.5183 213.459 14.2221L211.217 16.4636C210.385 17.2955 209.873 18.3844 209.745 19.6005C209.617 21.5213 210.129 23.3131 210.577 24.4666C211.601 27.4109 213.202 30.0357 215.571 32.8529C218.452 36.2459 221.845 38.9361 225.815 40.8559C227.287 41.5598 229.336 42.3926 231.577 42.5842C231.704 42.5842 231.832 42.5842 232.025 42.5842C233.562 42.5842 234.842 42.0085 235.866 40.9195C235.866 40.9195 235.866 40.9195 235.93 40.8559C236.251 40.4718 236.634 40.0876 237.083 39.7034C237.339 39.4473 237.66 39.1277 237.915 38.8716C239.26 37.4629 239.26 35.5421 237.915 34.198Z" fill="white"/>
<path d="M457.499 285.177L421.263 280.353L421.546 283.951L390.565 288.076C390.565 288.076 370.597 338.177 388.196 448.36H413.397L422.467 336.634H425.689L434.473 448.36H459.675C477.274 338.177 457.499 285.177 457.499 285.177Z" fill="#826467"/>
<path d="M410.945 336.635H437.238" stroke="#28262C" stroke-width="1.64441" stroke-miterlimit="10" stroke-linecap="round" stroke-linejoin="round"/>
<path d="M478.659 232.326C475.558 227.377 458.145 227.552 457.226 227.445C452.518 226.893 460.244 264.353 470.037 297.099C471.915 303.377 478.822 306.647 484.855 304.089C484.921 304.061 484.985 304.033 485.051 304.006C489.823 301.984 492.538 296.917 491.579 291.824C486.921 267.116 482.243 238.047 478.659 232.326Z" fill="#F79395"/>
<path d="M482.809 245.871L460.576 254.499L458.491 243.95L481.514 238.207L482.809 245.871Z" fill="#EC767F"/>
<path d="M487.008 266.975C487.008 266.975 476.476 281.119 476.978 280.469C477.48 279.819 485.238 257.611 485.238 257.611L487.008 266.975Z" fill="#EC767F"/>
<path d="M502.067 247.963L471.878 287.078C467.914 292.213 469.18 299.638 474.622 303.171C480.054 306.698 487.339 304.844 490.424 299.15L515.554 252.786L502.067 247.963Z" fill="#F79395"/>
<path d="M509.881 258.007C503.336 255.892 499.744 248.874 501.859 242.328C503.973 235.784 510.993 232.193 517.537 234.306C524.082 236.421 527.674 243.44 525.559 249.985C523.445 256.531 516.426 260.121 509.881 258.007Z" fill="#F79395"/>
<path d="M522.79 238.67C522.79 238.67 526.198 235.132 520.151 232.652C514.106 230.173 506.631 230.742 501.859 242.328L522.79 238.67Z" fill="#F79395"/>
<path d="M529.053 213.951L541.694 219.432C542.396 219.736 542.653 220.57 542.264 221.294L525.636 252.356C525.249 253.079 524.364 253.419 523.661 253.114L511.02 247.634C510.317 247.328 510.061 246.494 510.448 245.772L527.077 214.709C527.465 213.986 528.35 213.646 529.053 213.951Z" fill="#3B3261"/>
<path d="M527.846 213.401L540.486 218.881C541.189 219.186 541.446 220.02 541.057 220.744L524.428 251.805C524.042 252.529 523.157 252.868 522.453 252.563L509.814 247.083C509.11 246.778 508.854 245.945 509.242 245.221L525.87 214.159C526.257 213.436 527.142 213.096 527.846 213.401Z" fill="#2D2446"/>
<path d="M526.419 216.562L537.526 221.377L523.973 246.692L512.867 241.878L526.419 216.562Z" fill="#DFDCDA"/>
<path d="M537.526 221.377L512.867 241.878L526.419 216.562L537.526 221.377Z" fill="white"/>
<path d="M516.522 231.621C516.522 231.621 519.336 232.17 521.876 233.609C522.996 234.243 523.569 235.534 523.259 236.783C522.975 237.922 522.022 238.767 520.859 238.914L514.287 239.743C514.287 239.743 510.857 245.654 506.378 246.317L510.487 235.94L516.522 231.621Z" fill="#F79395"/>
<path d="M432.596 183.068C431.87 183.063 479.199 189.617 487.008 243.578L462.449 247.34L457.499 288.076H388.986L375.384 212.811C375.384 212.811 390.564 191.058 418.746 183.068H432.596Z" fill="url(#paint10_linear)"/>
<path d="M462.449 247.341L464.581 223.78" stroke="#28262C" stroke-width="1.64441" stroke-miterlimit="10" stroke-linecap="round" stroke-linejoin="round"/>
<path d="M437.094 183.84V165.097H415.13V184.06C414.006 184.396 412.134 185.073 409.229 186.453L426.359 196.658L443.873 186.453C443.873 186.453 441.092 184.836 437.094 183.84Z" fill="#F79395"/>
<path d="M414.926 167.386C414.926 167.386 418.87 177.861 429.4 176.956C439.079 176.125 437.538 161.609 437.538 161.609L414.926 167.386Z" fill="#28262C"/>
<path d="M405.347 153.457C401.904 156.58 394.206 144.735 397.532 141.409C400.859 138.085 403.397 143.302 403.397 143.302L404.882 146.838L406.002 151.625L406.268 152.88L405.347 153.457Z" fill="#EC767F"/>
<path d="M399.139 145.605C399.139 145.605 401.745 144.433 404.06 148.21" stroke="#28262C" stroke-width="1.32378" stroke-miterlimit="10" stroke-linecap="round" stroke-linejoin="round"/>
<path d="M446.06 153.098C449.226 156.501 457.898 145.35 454.865 141.755C451.832 138.16 448.862 143.144 448.862 143.144L447.083 146.541L445.561 151.217L445.19 152.444L446.06 153.098Z" fill="#EC767F"/>
<path d="M452.908 145.799C452.908 145.799 450.412 144.41 447.784 147.979" stroke="#28262C" stroke-width="1.32378" stroke-miterlimit="10" stroke-linecap="round" stroke-linejoin="round"/>
<path d="M399.308 130.111C399.308 145.79 411.262 153.224 426.009 153.224C440.754 153.224 452.707 145.79 452.707 130.111C452.707 114.432 440.754 103.765 426.009 103.765C411.262 103.765 399.308 114.432 399.308 130.111Z" fill="#28262C"/>
<path d="M402.937 131.201C402.937 140.827 404.297 149.132 405.654 155.028C406.983 160.799 410.723 164.833 416.009 168.079L416.971 168.67C422.564 172.105 429.789 172.186 435.467 168.875C441.194 165.537 445.203 161.135 446.437 154.942C448.681 143.678 448.927 131.201 448.927 131.201C448.927 131.201 451.062 106.904 426.261 107.376C401.457 107.848 402.937 131.201 402.937 131.201Z" fill="#F79395"/>
<path d="M424.427 145.068V148.43C424.427 148.629 424.465 148.821 424.535 148.995C424.811 149.682 425.605 150.012 426.321 149.821L427.863 149.412" stroke="#28262C" stroke-width="1.64217" stroke-miterlimit="10" stroke-linecap="round" stroke-linejoin="round"/>
<path d="M420.483 132.03L408.157 134.919C408.157 134.919 408.718 131.782 413.759 130.641C418.802 129.502 420.483 132.03 420.483 132.03Z" fill="#28262C"/>
<path d="M431.423 132.03L443.325 134.919C443.325 134.919 442.784 131.782 437.915 130.641C433.046 129.502 431.423 132.03 431.423 132.03Z" fill="#28262C"/>
<path d="M417.878 141.085C417.878 142.229 416.948 143.157 415.8 143.157C414.652 143.157 413.722 142.229 413.722 141.085C413.722 139.939 414.652 139.011 415.8 139.011C416.948 139.011 417.878 139.939 417.878 141.085Z" fill="#28262C"/>
<path d="M437.586 141.085C437.586 142.229 436.655 143.157 435.507 143.157C434.359 143.157 433.428 142.229 433.428 141.085C433.428 139.939 434.359 139.011 435.507 139.011C436.655 139.011 437.586 139.939 437.586 141.085Z" fill="#28262C"/>
<path d="M417.878 153.735H433.909C433.909 153.735 426.805 162.378 417.878 153.735Z" fill="white"/>
<path d="M423.765 141.89C423.765 146.772 419.808 150.73 414.926 150.73C410.044 150.73 406.086 146.772 406.086 141.89C406.086 137.008 410.044 133.05 414.926 133.05C419.808 133.05 423.765 137.008 423.765 141.89Z" stroke="url(#paint11_radial)" stroke-width="1.78973" stroke-miterlimit="10"/>
<path d="M445.481 141.89C445.481 146.772 441.524 150.73 436.642 150.73C431.76 150.73 427.801 146.772 427.801 141.89C427.801 137.008 431.76 133.05 436.642 133.05C441.524 133.05 445.481 137.008 445.481 141.89Z" stroke="url(#paint12_radial)" stroke-width="1.78973" stroke-miterlimit="10"/>
<path d="M423.765 141.89C423.765 141.89 425.859 139.936 427.801 141.89" stroke="url(#paint13_radial)" stroke-width="1.78973" stroke-miterlimit="10"/>
<path d="M406.086 141.89L403.302 141.82" stroke="url(#paint14_radial)" stroke-width="1.78973" stroke-miterlimit="10"/>
<path d="M445.481 141.89L448.282 141.82" stroke="url(#paint15_radial)" stroke-width="1.78973" stroke-miterlimit="10"/>
<path d="M448.607 139.258C448.607 139.258 438.691 125.852 440.979 112.271C440.979 112.271 448.339 115.975 450.256 125.535C452.173 135.095 448.607 139.258 448.607 139.258Z" fill="#28262C"/>
<path d="M402.921 140.166C402.921 140.166 414.441 124.94 412.153 111.359C412.153 111.359 404.162 115.975 402.245 125.534C400.33 135.095 402.921 140.166 402.921 140.166Z" fill="#28262C"/>
<path d="M447.776 117.62C447.776 117.62 435.043 131.559 400.207 129.173C400.207 129.173 405.541 108.719 422.424 106.54C422.424 106.54 441.917 104.212 447.776 117.62Z" fill="#28262C"/>
<path d="M463.515 101.324C463.515 110.51 456.068 117.958 446.882 117.958C437.695 117.958 430.248 110.51 430.248 101.324C430.248 92.1386 437.695 84.6915 446.882 84.6915C456.068 84.6915 463.515 92.1386 463.515 101.324Z" fill="#28262C"/>
<path d="M243.833 285.14L212.853 281.015L213.136 277.417L176.901 282.242C176.901 282.242 157.125 335.24 174.725 445.425H199.926L208.711 333.699H211.932L221.002 445.425H246.202C263.803 335.24 243.833 285.14 243.833 285.14Z" fill="#28262C"/>
<path d="M241.362 134.406C237.169 129.472 233.812 123.719 230.959 115.643C227.895 106.974 217.866 110.498 217.866 110.498C217.866 110.498 209.509 99.7461 196.932 103.492C184.356 107.236 179.986 116.185 179.73 126.825C179.473 137.465 171.105 139.129 164.66 151.437C153.283 173.167 172.438 191.471 207.305 186.393L207.352 186.055C210.785 187.097 214.993 187.553 220.131 187.248C262.018 184.76 257.976 153.951 241.362 134.406Z" fill="#28262C"/>
<path d="M227.649 150.52C231.092 153.642 238.789 141.798 235.463 138.473C232.137 135.147 229.599 140.365 229.599 140.365L228.114 143.9L226.993 148.688L226.727 149.942L227.649 150.52Z" fill="#EC767F"/>
<path d="M233.855 142.668C233.855 142.668 231.25 141.497 228.934 145.274" stroke="#28262C" stroke-width="1.32378" stroke-miterlimit="10" stroke-linecap="round" stroke-linejoin="round"/>
<path d="M186.935 150.161C183.768 153.564 175.096 142.413 178.13 138.819C181.164 135.223 184.133 140.207 184.133 140.207L185.912 143.605L187.433 148.281L187.805 149.508L186.935 150.161Z" fill="#EC767F"/>
<path d="M180.086 142.863C180.086 142.863 182.584 141.474 185.211 145.043" stroke="#28262C" stroke-width="1.32378" stroke-miterlimit="10" stroke-linecap="round" stroke-linejoin="round"/>
<path d="M233.686 127.174C233.686 142.853 221.732 150.288 206.987 150.288C192.242 150.288 180.288 142.853 180.288 127.174C180.288 111.496 192.242 100.829 206.987 100.829C221.732 100.829 233.686 111.496 233.686 127.174Z" fill="#28262C"/>
<path d="M217.866 190.602H195.902V162.16H217.866V190.602Z" fill="#F79395"/>
<path d="M192.696 160.387C192.696 160.387 198.81 172.589 206.332 174.494C208.341 175.003 210.487 174.828 212.425 174.142C215.256 173.138 218.846 168.917 219.456 164.247L219.739 161.579C219.739 161.579 206.355 168.866 192.696 160.387Z" fill="#28262C"/>
<path d="M230.057 128.266C230.057 137.891 228.698 146.197 227.34 152.091C226.011 157.863 222.272 161.896 216.986 165.143L216.024 165.734C210.431 169.169 203.206 169.249 197.528 165.939C191.801 162.601 187.792 158.198 186.558 152.006C184.313 140.742 184.068 128.266 184.068 128.266C184.068 128.266 181.933 103.968 206.735 104.44C231.538 104.912 230.057 128.266 230.057 128.266Z" fill="#F79395"/>
<path d="M205.331 143.448V145.445C205.331 145.643 205.369 145.834 205.439 146.009C205.715 146.694 206.508 147.021 207.225 146.832L208.767 146.425" stroke="#28262C" stroke-width="1.63968" stroke-miterlimit="10" stroke-linecap="round" stroke-linejoin="round"/>
<path d="M210.499 130.276L223.693 133.399C223.693 133.399 223.094 130.008 217.696 128.775C212.297 127.544 210.499 130.276 210.499 130.276Z" fill="#28262C"/>
<path d="M203.57 130.276L190.205 133.399C190.205 133.399 190.812 130.008 196.28 128.775C201.748 127.544 203.57 130.276 203.57 130.276Z" fill="#28262C"/>
<path d="M198.782 138.467C198.782 139.608 197.851 140.534 196.704 140.534C195.555 140.534 194.624 139.608 194.624 138.467C194.624 137.326 195.555 136.4 196.704 136.4C197.851 136.4 198.782 137.326 198.782 138.467Z" fill="#28262C"/>
<path d="M218.489 138.467C218.489 139.608 217.558 140.534 216.411 140.534C215.262 140.534 214.332 139.608 214.332 138.467C214.332 137.326 215.262 136.4 216.411 136.4C217.558 136.4 218.489 137.326 218.489 138.467Z" fill="#28262C"/>
<path d="M197.41 150.288H215.654C215.654 150.288 214.367 155.301 206.094 155.301C199.793 155.301 197.41 150.288 197.41 150.288Z" fill="white"/>
<path d="M184.387 136.321C184.387 136.321 194.304 122.914 192.016 109.333C192.016 109.333 184.656 113.037 182.739 122.598C180.823 132.157 184.387 136.321 184.387 136.321Z" fill="#28262C"/>
<path d="M230.074 135.874C230.074 135.874 218.555 122.003 220.843 108.422C220.843 108.422 228.832 113.037 230.749 122.598C232.666 132.157 230.074 135.874 230.074 135.874Z" fill="#28262C"/>
<path d="M185.219 114.683C185.219 114.683 196.598 129.977 231.434 127.59C231.434 127.59 227.455 105.781 210.571 103.603C210.571 103.603 191.078 101.275 185.219 114.683Z" fill="#28262C"/>
<path d="M153.463 352.414C152.956 353.21 182.458 224.054 173.699 226.007C172.9 226.183 157.56 227.609 155.28 232.245C148.672 245.682 143.932 351.433 143.932 351.433L153.463 352.414Z" fill="#F79395"/>
<path d="M143.932 351.433C143.932 351.433 139.177 373.496 157.152 375.908C158.336 376.068 159.481 375.368 159.871 374.238L159.923 374.088C160.353 372.842 159.728 371.505 158.524 370.967C155.594 369.657 151.048 366.346 153.303 358.827C153.303 358.827 155.901 358.508 157.335 363.355C157.704 364.602 159.104 365.228 160.265 364.644C161.057 364.244 161.504 363.391 161.392 362.51C160.961 359.115 159.254 350.945 152.702 348.752L143.932 351.433Z" fill="#F79395"/>
<path d="M149.98 263.278C149.98 263.278 166.978 287.216 167.068 286.752C167.157 286.29 173.011 253.144 173.011 253.144L152.386 244.209L149.98 263.278Z" fill="#EC767F"/>
<path d="M197.209 185.92C197.934 185.916 155.201 186.681 147.39 240.641L171.949 244.404L176.901 285.14H245.413L259.014 209.874C259.014 209.874 249.345 193.567 221.161 185.578L197.209 185.92Z" fill="url(#paint16_linear)"/>
<path d="M176.322 192.442C176.322 192.442 182.36 200.459 207.105 200.459C231.621 200.459 237.889 192.022 237.889 192.022C237.889 192.022 223.438 183.948 206.668 181.336C206.668 181.336 191.694 184.003 176.322 192.442Z" fill="#F79395"/>
<path d="M260.401 363.387L260.459 470.999H313.696L317.787 363.387H260.401Z" fill="#315384"/>
<path d="M375.991 363.387L375.933 470.999H322.696L318.604 363.387H375.991Z" fill="#315384"/>
<path d="M346.916 400.773H291.871V363.387H346.916V400.773Z" fill="#315384"/>
<path d="M409.623 269.475C412.924 305.94 409.441 332.509 410.404 399.607L378.63 400.938L373.896 275.341L409.623 269.475Z" fill="#F79395"/>
<path d="M377.814 297.93C377.814 297.93 397.491 296.129 410.944 287.255L410.59 279.445L377.803 283.912L377.814 297.93Z" fill="#EC767F"/>
<path d="M346.248 185.518C346.248 185.518 408.747 201.235 420.071 280.566C420.071 280.566 389.482 293.827 358.828 288.123L365.724 261.59L346.248 185.518Z" fill="url(#paint17_radial)"/>
<path d="M159.563 218.504L206.098 273.46L191.858 313.564C191.858 313.564 156.488 264.389 140.595 226.38L159.563 218.504Z" fill="#F79395"/>
<path d="M161.092 220.487C161.092 220.487 144.751 229.719 140.595 226.379C133.331 220.543 127.329 199.181 127.329 199.181C127.329 199.181 157.887 187.66 157.6 188.11C157.312 188.561 161.092 220.487 161.092 220.487Z" fill="#F79395"/>
<path d="M161.092 220.488C160.803 218.843 167.152 201.095 169.329 194.44C169.853 192.835 168.747 191.075 167.004 190.742C165.87 190.524 164.073 190.664 163.225 192.291L155.559 205.391L161.092 220.488Z" fill="#F79395"/>
<path d="M160.532 201.302L155.27 175.122C154.957 173.379 153.207 172.179 151.461 172.509C149.949 172.795 148.953 174.142 149.13 175.657L151.424 195.151L160.532 201.302Z" fill="#F79395"/>
<path d="M150.067 191.646L142.921 172.95C142.33 171.313 140.488 170.406 138.862 170.951C137.451 171.424 136.659 172.845 136.994 174.304L142.297 195.907L150.067 191.646Z" fill="#F79395"/>
<path d="M142.388 197.158L133.347 178.788C132.517 177.083 130.452 176.292 128.757 177.029C127.165 177.721 126.46 179.525 127.142 181.164L134.35 198.506L142.388 197.158Z" fill="#F79395"/>
<path d="M127.329 199.181L120.234 187.927C119.647 186.604 120.189 185.119 121.475 184.532C122.705 183.97 124.225 184.412 125.02 185.564L134.35 198.506L127.329 199.181Z" fill="#F79395"/>
<path d="M159.102 199.335C159.102 199.335 148.447 198.217 147.354 212.417" stroke="#28262C" stroke-width="2.04231" stroke-miterlimit="10" stroke-linecap="round" stroke-linejoin="round"/>
<path d="M182.42 294.806C182.42 294.806 191.171 325.097 208.613 321.07C226.055 317.043 253.237 279.792 253.237 279.792L247.153 216.186L198.201 276.435L182.42 294.806Z" fill="#F79395"/>
<path d="M213.384 257.721C213.384 257.721 229.912 282.65 244.01 291.441L253.238 279.792L217.639 252.253L213.384 257.721Z" fill="#EC767F"/>
<path d="M285.694 184.143C285.694 184.143 237.17 195.079 211.312 251.473C211.312 251.473 226.936 275.014 251.982 285.477L268.751 264.933L285.694 184.143Z" fill="url(#paint18_radial)"/>
<path d="M285.693 183.968C266.738 193.691 254.823 206.585 254.823 206.585L258.562 371.431H378.01L377.623 207.435C377.623 207.435 362.566 192.701 346.248 185.518C332.388 179.417 299.167 177.057 285.693 183.968Z" fill="url(#paint19_radial)"/>
<path d="M342.214 264.293C333.039 264.293 325.6 256.855 325.6 247.68V231.065H358.828V247.68C358.828 256.855 351.39 264.293 342.214 264.293V264.293Z" stroke="#28262C" stroke-width="1.86241" stroke-miterlimit="10" stroke-linecap="round" stroke-linejoin="round"/>
<path d="M377.814 288.736L379.365 234.81" stroke="#28262C" stroke-width="1.86241" stroke-miterlimit="10" stroke-linecap="round" stroke-linejoin="round"/>
<path d="M256.659 279.748L254.078 233.003" stroke="#28262C" stroke-width="1.86241" stroke-miterlimit="10" stroke-linecap="round" stroke-linejoin="round"/>
<path d="M287.093 123.758L282.114 99.1247C281.834 97.1185 281.055 94.0223 282.009 91.1127C283.585 86.2991 289.382 77.0552 299.289 81.287L301.43 91.0402C301.43 91.0402 291.142 93.1169 287.015 106.576L287.093 123.758Z" fill="#28262C"/>
<path d="M298.559 86.3721C298.379 89.6093 295.522 103.771 285.478 108.931C285.478 108.931 276.681 90.064 298.559 86.3721Z" fill="#28262C"/>
<path d="M333.792 179.433V137.604H295.232V179.433L283.754 184.665C283.754 184.665 286.446 202.002 314.917 202.386C343.388 202.77 346.248 185.518 346.248 185.518L333.792 179.433Z" fill="#F79395"/>
<path d="M299.289 81.287C299.289 81.287 306.365 62.6185 328.188 72.5434C341.397 78.5502 345.095 86.6049 346.669 92.3109C347.192 94.2079 347.4 97.1939 347.258 98.9669L341.979 123.758L321.372 89.4589L301.43 91.0402L299.289 81.287Z" fill="#28262C"/>
<path d="M341.979 123.758C341.979 123.758 344.58 119.624 349.941 121.657C355.303 123.691 352.878 136.712 344.834 138.372C344.834 138.372 341.951 139.001 339.691 137.027C339.691 137.027 341.668 127.409 341.979 123.758Z" fill="#EC767F"/>
<path d="M348.878 126.251C348.878 126.251 344.386 124.752 341.198 131.366" stroke="#28262C" stroke-width="1.86241" stroke-miterlimit="10" stroke-linecap="round" stroke-linejoin="round"/>
<path d="M287.092 123.758C287.092 123.758 284.493 119.624 279.131 121.657C273.769 123.691 276.195 136.712 284.237 138.372C284.237 138.372 287.121 139.001 289.381 137.027C289.381 137.027 287.404 127.409 287.092 123.758Z" fill="#EC767F"/>
<path d="M280.195 126.251C280.195 126.251 284.686 124.752 287.874 131.366" stroke="#28262C" stroke-width="1.86241" stroke-miterlimit="10" stroke-linecap="round" stroke-linejoin="round"/>
<path d="M342.516 111.401C342.519 119.251 341.749 135.675 336.923 145.422C332.392 154.575 324.897 159.5 315.072 159.793C305.247 160.086 297.927 156.3 292.062 144.422C286.196 132.543 286.477 111.547 286.477 111.547C286.477 111.547 286.477 83.5042 314.192 83.5042C343.383 83.5042 342.516 111.401 342.516 111.401Z" fill="#F79395"/>
<path d="M295.522 150.277C295.522 150.277 298.752 166.662 313.011 168.544C329.422 170.71 333.793 150.693 333.793 150.693C333.793 150.693 326.541 159.781 315.072 159.794C302.282 159.81 295.522 150.277 295.522 150.277Z" fill="#28262C"/>
<path d="M312.52 123.044V129.534C312.52 129.813 312.574 130.08 312.671 130.324C313.056 131.286 314.162 131.746 315.163 131.48L317.314 130.908" stroke="#28262C" stroke-width="1.86241" stroke-miterlimit="10" stroke-linecap="round" stroke-linejoin="round"/>
<path d="M304.334 119.944C304.334 121.338 303.205 122.468 301.812 122.468C300.418 122.468 299.289 121.338 299.289 119.944C299.289 118.551 300.418 117.421 301.812 117.421C303.205 117.421 304.334 118.551 304.334 119.944Z" fill="#28262C"/>
<path d="M327.991 119.944C327.991 121.338 326.86 122.468 325.468 122.468C324.074 122.468 322.944 121.338 322.944 119.944C322.944 118.551 324.074 117.421 325.468 117.421C326.86 117.421 327.991 118.551 327.991 119.944Z" fill="#28262C"/>
<path d="M319.009 107.392L335.973 111.775C335.973 111.775 335.202 107.016 328.262 105.288C321.322 103.558 319.009 107.392 319.009 107.392Z" fill="#28262C"/>
<path d="M308.468 107.392L291.504 111.775C291.504 111.775 292.275 107.016 299.214 105.288C306.155 103.558 308.468 107.392 308.468 107.392Z" fill="#28262C"/>
<path d="M305.094 136.073C305.094 136.073 307.596 137.991 314.177 137.991C320.162 137.991 323.9 136.073 323.9 136.073" stroke="#28262C" stroke-width="1.86241" stroke-miterlimit="10" stroke-linecap="round" stroke-linejoin="round"/>
<path d="M311.854 120.681C311.854 126.602 307.054 131.403 301.132 131.403C295.212 131.403 290.411 126.602 290.411 120.681C290.411 114.76 295.212 109.959 301.132 109.959C307.054 109.959 311.854 114.76 311.854 120.681Z" stroke="white" stroke-width="2.60191" stroke-miterlimit="10"/>
<path d="M338.192 120.681C338.192 126.602 333.392 131.403 327.471 131.403C321.55 131.403 316.749 126.602 316.749 120.681C316.749 114.76 321.55 109.959 327.471 109.959C333.392 109.959 338.192 114.76 338.192 120.681Z" stroke="white" stroke-width="2.60191" stroke-miterlimit="10"/>
<path d="M311.854 120.682C311.854 120.682 314.393 118.312 316.749 120.682" stroke="white" stroke-width="2.60191" stroke-miterlimit="10"/>
<path d="M290.411 120.682L286.816 120.591" stroke="white" stroke-width="2.60191" stroke-miterlimit="10"/>
<path d="M338.192 120.682L342.205 120.617" stroke="white" stroke-width="2.60191" stroke-miterlimit="10"/>
<path d="M295.522 87.013C295.522 87.013 300.672 101.64 323.903 101.192C339.691 100.887 343.463 112.311 343.463 112.311C343.463 112.311 340.716 86.7717 339.993 87.013C339.271 87.2532 315.971 80.7957 315.971 80.7957L295.522 87.013Z" fill="#28262C"/>
<defs>
<linearGradient id="paint0_linear" x1="130.21" y1="106.559" x2="139.272" y2="106.559" gradientUnits="userSpaceOnUse">
<stop stop-color="#8A189D"/>
<stop offset="0.6675" stop-color="#4B56CA"/>
<stop offset="1" stop-color="#3170DD"/>
</linearGradient>
<radialGradient id="paint1_radial" cx="0" cy="0" r="1" gradientUnits="userSpaceOnUse" gradientTransform="translate(542.949 190.308) scale(60.985 51.7941)">
<stop stop-color="#0F3DE9"/>
<stop offset="1" stop-color="#182E84"/>
</radialGradient>
<radialGradient id="paint2_radial" cx="0" cy="0" r="1" gradientUnits="userSpaceOnUse" gradientTransform="translate(58.513 302.137) rotate(-125.161) scale(53.7931 54.0939)">
<stop stop-color="#197DA4"/>
<stop offset="0.510417" stop-color="#1E438A"/>
<stop offset="1" stop-color="#178CBB"/>
</radialGradient>
<radialGradient id="paint3_radial" cx="0" cy="0" r="1" gradientUnits="userSpaceOnUse" gradientTransform="translate(16.3765 60.3906) scale(90.9942 6.33379)">
<stop stop-color="#0F3DE9"/>
<stop offset="1" stop-color="#182E84"/>
</radialGradient>
<linearGradient id="paint4_linear" x1="583.005" y1="303.785" x2="639.345" y2="303.785" gradientUnits="userSpaceOnUse">
<stop stop-color="#8A189D"/>
<stop offset="0.6675" stop-color="#4B56CA"/>
<stop offset="1" stop-color="#3170DD"/>
</linearGradient>
<radialGradient id="paint5_radial" cx="0" cy="0" r="1" gradientUnits="userSpaceOnUse" gradientTransform="translate(593.477 349.18) scale(9.79959 9.49066)">
<stop stop-color="#0F3DE9"/>
<stop offset="1" stop-color="#182E84"/>
</radialGradient>
<radialGradient id="paint6_radial" cx="0" cy="0" r="1" gradientUnits="userSpaceOnUse" gradientTransform="translate(31.7639 377.327) rotate(-125.258) scale(8.82986 8.88998)">
<stop stop-color="#197DA4"/>
<stop offset="0.510417" stop-color="#1E438A"/>
<stop offset="1" stop-color="#178CBB"/>
</radialGradient>
<radialGradient id="paint7_radial" cx="0" cy="0" r="1" gradientUnits="userSpaceOnUse" gradientTransform="translate(436.129 58.1512) rotate(-157.256) scale(49.9684 38.0543)">
<stop stop-color="#197DA4"/>
<stop offset="0.510417" stop-color="#1E438A"/>
<stop offset="1" stop-color="#178CBB"/>
</radialGradient>
<radialGradient id="paint8_radial" cx="0" cy="0" r="1" gradientUnits="userSpaceOnUse" gradientTransform="translate(408.002 66.2908) rotate(-130.735) scale(9.93636 10.4943)">
<stop stop-color="#197DA4"/>
<stop offset="0.510417" stop-color="#1E438A"/>
<stop offset="1" stop-color="#178CBB"/>
</radialGradient>
<linearGradient id="paint9_linear" x1="191.798" y1="29.8111" x2="254.71" y2="29.8111" gradientUnits="userSpaceOnUse">
<stop stop-color="#8A189D"/>
<stop offset="0.6675" stop-color="#4B56CA"/>
<stop offset="1" stop-color="#3170DD"/>
</linearGradient>
<linearGradient id="paint10_linear" x1="375.488" y1="235.607" x2="487.02" y2="235.607" gradientUnits="userSpaceOnUse">
<stop stop-color="#8A189D"/>
<stop offset="0.6675" stop-color="#4B56CA"/>
<stop offset="1" stop-color="#3170DD"/>
</linearGradient>
<radialGradient id="paint11_radial" cx="0" cy="0" r="1" gradientUnits="userSpaceOnUse" gradientTransform="translate(407.498 147.717) scale(14.8693 14.8701)">
<stop stop-color="#0F3DE9"/>
<stop offset="1" stop-color="#182E84"/>
</radialGradient>
<radialGradient id="paint12_radial" cx="0" cy="0" r="1" gradientUnits="userSpaceOnUse" gradientTransform="translate(429.214 147.717) scale(14.8701)">
<stop stop-color="#0F3DE9"/>
<stop offset="1" stop-color="#182E84"/>
</radialGradient>
<radialGradient id="paint13_radial" cx="0" cy="0" r="1" gradientUnits="userSpaceOnUse" gradientTransform="translate(424.088 141.742) scale(3.39484 0.730657)">
<stop stop-color="#0F3DE9"/>
<stop offset="1" stop-color="#182E84"/>
</radialGradient>
<radialGradient id="paint14_radial" cx="0" cy="0" r="1" gradientUnits="userSpaceOnUse" gradientTransform="translate(403.524 141.878) scale(2.34196 0.0592768)">
<stop stop-color="#0F3DE9"/>
<stop offset="1" stop-color="#182E84"/>
</radialGradient>
<radialGradient id="paint15_radial" cx="0" cy="0" r="1" gradientUnits="userSpaceOnUse" gradientTransform="translate(445.705 141.878) scale(2.35615 0.0592768)">
<stop stop-color="#0F3DE9"/>
<stop offset="1" stop-color="#182E84"/>
</radialGradient>
<linearGradient id="paint16_linear" x1="147.493" y1="235.391" x2="259.026" y2="235.391" gradientUnits="userSpaceOnUse">
<stop stop-color="#8A189D"/>
<stop offset="0.6675" stop-color="#4B56CA"/>
<stop offset="1" stop-color="#3170DD"/>
</linearGradient>
<radialGradient id="paint17_radial" cx="0" cy="0" r="1" gradientUnits="userSpaceOnUse" gradientTransform="translate(352.145 271.821) scale(62.0913 87.4978)">
<stop stop-color="#0F3DE9"/>
<stop offset="1" stop-color="#182E84"/>
</radialGradient>
<radialGradient id="paint18_radial" cx="0" cy="0" r="1" gradientUnits="userSpaceOnUse" gradientTransform="translate(217.254 268.21) scale(62.5605 85.2297)">
<stop stop-color="#0F3DE9"/>
<stop offset="1" stop-color="#182E84"/>
</radialGradient>
<radialGradient id="paint19_radial" cx="0" cy="0" r="1" gradientUnits="userSpaceOnUse" gradientTransform="translate(264.663 338.769) scale(103.61 161.214)">
<stop stop-color="#0F3DE9"/>
<stop offset="1" stop-color="#182E84"/>
</radialGradient>
</defs>
</svg>
